<?xml version="1.0" encoding="UTF-8"?>
<svg xmlns="http://www.w3.org/2000/svg" xmlns:xlink="http://www.w3.org/1999/xlink" width="30px" height="30px" viewBox="0 0 30 30" version="1.1">
<g id="surface1">
<path style=" stroke:none;fill-rule:nonzero;fill:rgb(93.72549%,5.882353%,5.882353%);fill-opacity:1;" d="M 15.78125 12.25 L 14.03125 12.25 C 12.582031 12.25 11.40625 13.453125 11.40625 14.941406 C 11.40625 16.425781 12.582031 17.632812 14.03125 17.632812 L 15.78125 17.632812 C 17.230469 17.632812 18.40625 16.425781 18.40625 14.941406 C 18.40625 13.453125 17.230469 12.25 15.78125 12.25 Z M 15.714844 16.554688 L 14.097656 16.554688 C 13.207031 16.554688 12.484375 15.832031 12.484375 14.941406 C 12.484375 14.046875 13.207031 13.324219 14.097656 13.324219 L 15.714844 13.324219 C 16.605469 13.324219 17.328125 14.046875 17.328125 14.941406 C 17.328125 15.832031 16.605469 16.554688 15.714844 16.554688 Z M 25.132812 11.710938 L 24.042969 11.710938 C 23.640625 10.578125 23.035156 9.539062 22.269531 8.644531 L 22.949219 7.464844 C 23.695312 6.175781 23.253906 4.53125 21.964844 3.789062 L 21.035156 3.25 C 19.746094 2.507812 18.101562 2.949219 17.355469 4.234375 L 16.675781 5.414062 C 16.09375 5.304688 15.5 5.25 14.90625 5.25 C 14.300781 5.25 13.707031 5.308594 13.132812 5.414062 L 12.453125 4.234375 C 11.710938 2.949219 10.066406 2.507812 8.777344 3.25 L 7.84375 3.789062 C 6.558594 4.53125 6.117188 6.175781 6.859375 7.464844 L 7.542969 8.644531 C 6.773438 9.539062 6.167969 10.578125 5.769531 11.710938 L 4.679688 11.710938 C 3.191406 11.710938 1.988281 12.914062 1.988281 14.402344 L 1.988281 15.476562 C 1.988281 16.964844 3.191406 18.167969 4.679688 18.167969 L 5.769531 18.167969 C 6.167969 19.304688 6.773438 20.339844 7.542969 21.234375 L 6.859375 22.414062 C 6.117188 23.703125 6.558594 25.347656 7.84375 26.09375 L 8.777344 26.628906 C 10.066406 27.375 11.710938 26.933594 12.453125 25.644531 L 13.132812 24.46875 C 13.71875 24.574219 14.3125 24.628906 14.90625 24.628906 C 15.511719 24.628906 16.101562 24.574219 16.675781 24.46875 L 17.355469 25.644531 C 18.101562 26.933594 19.746094 27.375 21.035156 26.628906 L 21.964844 26.09375 C 23.253906 25.347656 23.695312 23.703125 22.949219 22.414062 L 22.269531 21.234375 C 23.035156 20.339844 23.640625 19.304688 24.042969 18.167969 L 25.132812 18.167969 C 26.621094 18.167969 27.824219 16.964844 27.824219 15.476562 L 27.824219 14.402344 C 27.824219 12.914062 26.621094 11.710938 25.132812 11.710938 Z M 25.132812 17.09375 L 23.246094 17.09375 C 22.851562 18.632812 22.039062 20.003906 20.941406 21.085938 L 21.75 22.488281 C 22.34375 23.515625 21.992188 24.835938 20.960938 25.429688 C 19.929688 26.023438 18.613281 25.671875 18.019531 24.640625 L 17.210938 23.238281 C 16.476562 23.445312 15.703125 23.550781 14.90625 23.550781 C 14.105469 23.550781 13.332031 23.445312 12.601562 23.238281 L 11.792969 24.640625 C 11.195312 25.671875 9.878906 26.023438 8.851562 25.429688 C 7.820312 24.835938 7.46875 23.515625 8.0625 22.488281 L 8.871094 21.085938 C 7.773438 20.003906 6.960938 18.632812 6.566406 17.09375 L 5.214844 17.09375 C 4.027344 17.09375 3.0625 16.128906 3.0625 14.941406 C 3.0625 13.75 4.027344 12.789062 5.214844 12.789062 L 6.566406 12.789062 C 6.960938 11.246094 7.773438 9.875 8.871094 8.796875 L 8.0625 7.394531 C 7.46875 6.363281 7.820312 5.046875 8.851562 4.453125 C 9.878906 3.855469 11.195312 4.210938 11.792969 5.238281 L 12.601562 6.640625 C 13.332031 6.4375 14.105469 6.328125 14.90625 6.328125 C 15.703125 6.328125 16.476562 6.4375 17.210938 6.640625 L 18.019531 5.238281 C 18.613281 4.210938 19.929688 3.855469 20.960938 4.453125 C 21.992188 5.046875 22.34375 6.363281 21.75 7.394531 L 20.941406 8.796875 C 22.039062 9.875 22.851562 11.246094 23.246094 12.789062 L 25.132812 12.789062 C 26.320312 12.789062 26.746094 13.75 26.746094 14.941406 C 26.746094 16.128906 26.320312 17.09375 25.132812 17.09375 Z M 25.132812 17.09375 "/>
</g>
</svg>
