<?xml version="1.0" encoding="UTF-8"?>
<svg xmlns="http://www.w3.org/2000/svg" xmlns:xlink="http://www.w3.org/1999/xlink" width="30px" height="30px" viewBox="0 0 30 30" version="1.1">
<g id="surface1">
<path style=" stroke:none;fill-rule:nonzero;fill:rgb(93.72549%,14.509804%,14.509804%);fill-opacity:1;" d="M 18.597656 9.308594 L 9.65625 9.308594 C 9.347656 9.308594 9.097656 9.558594 9.097656 9.867188 C 9.097656 10.175781 9.347656 10.425781 9.65625 10.425781 L 18.597656 10.425781 C 18.90625 10.425781 19.15625 10.175781 19.15625 9.867188 C 19.15625 9.558594 18.90625 9.308594 18.597656 9.308594 Z M 14.40625 2.046875 C 9.007812 2.046875 4.628906 6.421875 4.628906 11.824219 L 4.628906 18.527344 C 4.628906 23.925781 9.007812 28.304688 14.40625 28.304688 L 18.039062 28.304688 L 23.625 22.15625 L 23.625 11.824219 C 23.625 6.421875 19.804688 2.046875 14.40625 2.046875 Z M 17.75 26.886719 C 17.527344 25.535156 17.363281 23.585938 18.039062 22.71875 C 18.707031 21.90625 20.730469 21.894531 22.152344 21.996094 Z M 16.921875 21.597656 C 15.957031 22.574219 16.355469 25.53125 16.671875 27.171875 C 15.917969 27.175781 14.925781 27.183594 14.40625 27.1875 C 9.625 27.210938 5.746094 23.308594 5.746094 18.527344 L 5.746094 11.824219 C 5.746094 7.039062 9.625 3.164062 14.40625 3.164062 C 19.1875 3.164062 22.507812 7.039062 22.507812 11.824219 L 22.507812 19.644531 C 22.507812 19.894531 22.511719 20.457031 22.515625 20.9375 C 20.835938 20.808594 17.757812 20.710938 16.921875 21.597656 Z M 18.597656 16.570312 L 9.65625 16.570312 C 9.347656 16.570312 9.097656 16.820312 9.097656 17.128906 C 9.097656 17.4375 9.347656 17.6875 9.65625 17.6875 L 18.597656 17.6875 C 18.90625 17.6875 19.15625 17.4375 19.15625 17.128906 C 19.15625 16.820312 18.90625 16.570312 18.597656 16.570312 Z M 18.597656 13.21875 L 9.65625 13.21875 C 9.347656 13.21875 9.097656 13.46875 9.097656 13.777344 C 9.097656 14.085938 9.347656 14.335938 9.65625 14.335938 L 18.597656 14.335938 C 18.90625 14.335938 19.15625 14.085938 19.15625 13.777344 C 19.15625 13.46875 18.90625 13.21875 18.597656 13.21875 Z M 18.597656 13.21875 "/>
</g>
</svg>
