<?xml version="1.0" encoding="UTF-8"?>
<svg xmlns="http://www.w3.org/2000/svg" xmlns:xlink="http://www.w3.org/1999/xlink" width="30px" height="30px" viewBox="0 0 30 30" version="1.1">
<g id="surface1">
<path style=" stroke:none;fill-rule:nonzero;fill:rgb(89.803922%,25.490196%,25.490196%);fill-opacity:1;" d="M 21.0625 15.097656 L 15.605469 15.097656 L 15.605469 10.1875 C 15.605469 9.886719 15.363281 9.644531 15.0625 9.644531 C 14.761719 9.644531 14.515625 9.886719 14.515625 10.1875 L 14.515625 15.097656 L 9.0625 15.097656 C 8.761719 15.097656 8.515625 15.34375 8.515625 15.644531 C 8.515625 15.945312 8.761719 16.1875 9.0625 16.1875 L 14.515625 16.1875 L 14.515625 22.1875 C 14.515625 22.488281 14.761719 22.734375 15.0625 22.734375 C 15.363281 22.734375 15.605469 22.488281 15.605469 22.1875 L 15.605469 16.1875 L 21.0625 16.1875 C 21.363281 16.1875 21.605469 15.945312 21.605469 15.644531 C 21.605469 15.34375 21.363281 15.097656 21.0625 15.097656 Z M 17.242188 4.191406 L 12.878906 4.191406 C 6.855469 4.191406 1.972656 9.074219 1.972656 15.097656 L 1.972656 16.734375 C 1.972656 22.757812 6.855469 27.640625 12.878906 27.640625 L 17.242188 27.640625 C 23.265625 27.640625 28.152344 22.757812 28.152344 16.734375 L 28.152344 15.097656 C 28.152344 9.074219 23.265625 4.191406 17.242188 4.191406 Z M 16.425781 26.550781 L 13.699219 26.550781 C 7.824219 26.550781 3.0625 21.789062 3.0625 15.914062 C 3.0625 10.042969 7.824219 5.28125 13.699219 5.28125 L 16.425781 5.28125 C 22.296875 5.28125 27.058594 10.042969 27.058594 15.914062 C 27.058594 21.789062 22.296875 26.550781 16.425781 26.550781 Z M 16.425781 26.550781 "/>
</g>
</svg>
