<?xml version="1.0" encoding="UTF-8"?>
<svg xmlns="http://www.w3.org/2000/svg" xmlns:xlink="http://www.w3.org/1999/xlink" width="30px" height="30px" viewBox="0 0 30 30" version="1.1">
<g id="surface1">
<path style=" stroke:none;fill-rule:nonzero;fill:rgb(91.764706%,19.607843%,19.607843%);fill-opacity:1;" d="M 2.664062 15.207031 C 2.664062 15.207031 2.648438 14.035156 2.664062 14.054688 C 2.683594 12.917969 12.515625 3.039062 14.785156 3.089844 C 17.054688 3.136719 26.90625 12.882812 26.90625 14.054688 C 26.886719 14.074219 26.90625 15.207031 26.90625 15.207031 L 28.058594 15.207031 C 28.058594 15.207031 28.078125 14.035156 28.058594 14.054688 C 28.09375 12.304688 17.933594 1.902344 14.785156 1.933594 C 11.382812 1.96875 1.492188 12.285156 1.511719 14.054688 C 1.492188 14.054688 1.511719 15.207031 1.511719 15.207031 Z M 2.664062 15.207031 "/>
<path style=" stroke:none;fill-rule:nonzero;fill:rgb(91.764706%,19.607843%,19.607843%);fill-opacity:1;" d="M 6.703125 14.054688 L 6.703125 15.207031 C 6.703125 15.207031 7.886719 24.449219 10.167969 25.597656 C 12.457031 27.28125 17.171875 27.3125 19.402344 25.597656 C 21.644531 24.464844 22.863281 15.207031 22.863281 15.207031 L 22.863281 14.054688 L 24.019531 14.054688 L 24.019531 15.207031 C 24.019531 15.207031 22.824219 25.714844 19.402344 26.75 C 16.507812 28.484375 12.5 28.421875 9.589844 26.75 C 7.210938 25.605469 5.550781 15.207031 5.550781 15.207031 L 5.550781 14.054688 Z M 6.703125 14.054688 "/>
</g>
</svg>
