<?xml version="1.0" encoding="UTF-8"?>
<svg xmlns="http://www.w3.org/2000/svg" xmlns:xlink="http://www.w3.org/1999/xlink" width="30px" height="30px" viewBox="0 0 30 30" version="1.1">
<g id="surface1">
<path style="fill-rule:evenodd;fill:rgb(34.901961%,34.901961%,34.901961%);fill-opacity:1;stroke-width:8;stroke-linecap:round;stroke-linejoin:round;stroke:rgb(0%,0%,0%);stroke-opacity:1;stroke-miterlimit:10;" d="M 68.007812 49.765625 C 68.007812 45.351562 70.078125 44.726562 72.578125 48.359375 L 123.984375 121.992188 L 68.007812 121.992188 Z M 68.007812 49.765625 " transform="matrix(0.1,0,0,0.1,0,0)"/>
<path style="fill-rule:evenodd;fill:rgb(34.901961%,34.901961%,34.901961%);fill-opacity:1;stroke-width:8;stroke-linecap:round;stroke-linejoin:round;stroke:rgb(0%,0%,0%);stroke-opacity:1;stroke-miterlimit:10;" d="M 236.015625 49.765625 C 236.015625 45.351562 233.945312 44.726562 231.40625 48.359375 L 180 121.992188 L 236.015625 121.992188 Z M 236.015625 49.765625 " transform="matrix(0.1,0,0,0.1,0,0)"/>
<path style="fill-rule:evenodd;fill:rgb(46.666667%,46.666667%,46.666667%);fill-opacity:1;stroke-width:8;stroke-linecap:round;stroke-linejoin:round;stroke:rgb(0%,0%,0%);stroke-opacity:1;stroke-miterlimit:10;" d="M 263.984375 171.992188 C 263.984375 122.304688 213.867188 81.992188 151.992188 81.992188 C 90.15625 81.992188 40 122.304688 40 171.992188 C 40 221.71875 90.15625 261.992188 151.992188 261.992188 C 213.867188 261.992188 263.984375 221.71875 263.984375 171.992188 Z M 263.984375 171.992188 " transform="matrix(0.1,0,0,0.1,0,0)"/>
<path style="fill-rule:evenodd;fill:rgb(34.901961%,34.901961%,34.901961%);fill-opacity:1;stroke-width:8;stroke-linecap:round;stroke-linejoin:round;stroke:rgb(0%,0%,0%);stroke-opacity:1;stroke-miterlimit:10;" d="M 151.757812 215.039062 C 149.6875 218.984375 146.328125 218.984375 144.21875 215.039062 L 136.835938 201.09375 C 134.765625 197.1875 136.640625 193.984375 141.015625 193.984375 L 155 193.984375 C 159.375 193.984375 161.210938 197.1875 159.140625 201.09375 Z M 151.757812 215.039062 " transform="matrix(0.1,0,0,0.1,0,0)"/>
<path style="fill-rule:evenodd;fill:rgb(100%,100%,100%);fill-opacity:1;stroke-width:8;stroke-linecap:round;stroke-linejoin:round;stroke:rgb(0%,0%,0%);stroke-opacity:1;stroke-miterlimit:10;" d="M 123.984375 158.007812 C 123.984375 166.835938 116.835938 173.984375 108.007812 173.984375 C 99.179688 173.984375 91.992188 166.835938 91.992188 158.007812 C 91.992188 149.179688 99.179688 141.992188 108.007812 141.992188 C 116.835938 141.992188 123.984375 149.179688 123.984375 158.007812 Z M 123.984375 158.007812 " transform="matrix(0.1,0,0,0.1,0,0)"/>
<path style=" stroke:none;fill-rule:evenodd;fill:rgb(0%,0%,0%);fill-opacity:1;" d="M 11.199219 16.199219 C 11.199219 16.640625 10.84375 17 10.398438 17 C 9.957031 17 9.601562 16.640625 9.601562 16.199219 C 9.601562 15.757812 9.957031 15.398438 10.398438 15.398438 C 10.84375 15.398438 11.199219 15.757812 11.199219 16.199219 Z M 11.199219 16.199219 "/>
<path style="fill-rule:evenodd;fill:rgb(100%,100%,100%);fill-opacity:1;stroke-width:8;stroke-linecap:round;stroke-linejoin:round;stroke:rgb(0%,0%,0%);stroke-opacity:1;stroke-miterlimit:10;" d="M 211.992188 158.007812 C 211.992188 166.835938 204.84375 173.984375 196.015625 173.984375 C 187.148438 173.984375 180 166.835938 180 158.007812 C 180 149.179688 187.148438 141.992188 196.015625 141.992188 C 204.84375 141.992188 211.992188 149.179688 211.992188 158.007812 Z M 211.992188 158.007812 " transform="matrix(0.1,0,0,0.1,0,0)"/>
<path style=" stroke:none;fill-rule:evenodd;fill:rgb(0%,0%,0%);fill-opacity:1;" d="M 20 16.199219 C 20 16.640625 19.640625 17 19.199219 17 C 18.757812 17 18.398438 16.640625 18.398438 16.199219 C 18.398438 15.757812 18.757812 15.398438 19.199219 15.398438 C 19.640625 15.398438 20 15.757812 20 16.199219 Z M 20 16.199219 "/>
<path style="fill:none;stroke-width:8;stroke-linecap:round;stroke-linejoin:round;stroke:rgb(0%,0%,0%);stroke-opacity:1;stroke-miterlimit:10;" d="M 148.007812 218.007812 C 148.007812 218.007812 135 230 121.992188 230 C 108.984375 230 96.015625 218.007812 96.015625 218.007812 " transform="matrix(0.1,0,0,0.1,0,0)"/>
<path style="fill:none;stroke-width:8;stroke-linecap:round;stroke-linejoin:round;stroke:rgb(0%,0%,0%);stroke-opacity:1;stroke-miterlimit:10;" d="M 200 218.007812 C 200 218.007812 186.992188 230 173.984375 230 C 161.015625 230 148.007812 218.007812 148.007812 218.007812 " transform="matrix(0.1,0,0,0.1,0,0)"/>
<path style="fill-rule:nonzero;fill:rgb(14.901961%,73.333333%,92.54902%);fill-opacity:1;stroke-width:8;stroke-linecap:round;stroke-linejoin:round;stroke:rgb(0%,0%,0%);stroke-opacity:1;stroke-miterlimit:10;" d="M 36.015625 186.015625 L 111.992188 206.015625 " transform="matrix(0.1,0,0,0.1,0,0)"/>
<path style="fill-rule:nonzero;fill:rgb(14.901961%,73.333333%,92.54902%);fill-opacity:1;stroke-width:8;stroke-linecap:round;stroke-linejoin:round;stroke:rgb(0%,0%,0%);stroke-opacity:1;stroke-miterlimit:10;" d="M 36.015625 166.015625 L 111.992188 193.984375 " transform="matrix(0.1,0,0,0.1,0,0)"/>
<path style="fill-rule:nonzero;fill:rgb(14.901961%,73.333333%,92.54902%);fill-opacity:1;stroke-width:8;stroke-linecap:round;stroke-linejoin:round;stroke:rgb(0%,0%,0%);stroke-opacity:1;stroke-miterlimit:10;" d="M 196.015625 193.984375 L 271.992188 173.984375 " transform="matrix(0.1,0,0,0.1,0,0)"/>
<path style="fill-rule:nonzero;fill:rgb(14.901961%,73.333333%,92.54902%);fill-opacity:1;stroke-width:8;stroke-linecap:round;stroke-linejoin:round;stroke:rgb(0%,0%,0%);stroke-opacity:1;stroke-miterlimit:10;" d="M 196.015625 206.015625 L 271.992188 193.984375 " transform="matrix(0.1,0,0,0.1,0,0)"/>
</g>
</svg>
